<?xml version="1.0" encoding="UTF-8"?> <svg xmlns="http://www.w3.org/2000/svg" width="1000" height="1000" viewBox="0 0 1000 1000"><path d="M0 0h1000v1000H0z" fill="#FD0"></path><path d="M1000 517.4V1000H565L268 726l15-474 376-11 55 48 16-19z" opacity=".2"></path><path d="M422.3 403.5l-47.4 47.3 134.4 134.3 268.6-268.6-47.3-47.7-221.3 221.3z" fill="#FFF"></path><path d="M701.6 688.5H309.1V296.1h295.1l56-56.1h-351c-31 0-56 25.1-56.1 56v392.5c0 31 25.1 56 56 56.1h392.5c31 0 56-25.1 56-56V435.7l-56 56.1v196.6z" fill="#FFF"></path></svg> 